<?xml version="1.0" encoding="UTF-8"?>
<svg width="752pt" height="752pt" version="1.1" viewBox="0 0 752 752" xmlns="http://www.w3.org/2000/svg">
 <g fill="#089090">
  <path d="m603.47 400.03c-1.6992-2.3516-19.355-26.426-48.211-53.957l37.809-37.824c6.8633-6.8398 6.8633-17.949 0-24.773-6.8242-6.8555-17.934-6.8555-24.777 0l-39.414 39.406c-13.77-11.109-29.066-21.98-45.699-31.457l25.41-41.98c5.0039-8.2891 2.3633-19.062-5.9258-24.078-8.2812-5.0234-19.062-2.3516-24.07 5.918l-27.035 44.695c-15.676-6.3984-32.184-11.203-49.316-13.707v-50.566c0-9.6758-7.8438-17.539-17.539-17.539-9.6758 0-17.523 7.8633-17.523 17.539v48.863c-23.426 1.1562-45.82 6.8828-66.758 15.418l-27.031-44.68c-5-8.2812-15.785-10.965-24.074-5.9297-8.2773 5.0156-10.93 15.785-5.918 24.078l25.41 41.98c-16.613 9.4727-31.93 20.348-45.699 31.469l-39.422-39.422c-6.8398-6.8555-17.949-6.8555-24.789 0-6.8398 6.8242-6.8398 17.938 0 24.773l37.84 37.824c-28.867 27.527-46.516 51.605-48.223 53.957-3.8789 5.3828-3.8789 12.633 0 18.031 4.1328 5.7031 102.32 139.76 227.48 139.76 125.17 0 223.35-134.05 227.48-139.77 3.8789-5.3945 3.8789-12.645-0.003906-18.035zm-227.47 113.46c-57.578 0-104.43-46.848-104.43-104.46 0-57.594 46.852-104.45 104.43-104.45 57.598 0 104.46 46.852 104.46 104.45 0 57.609-46.863 104.46-104.46 104.46zm-195.43-104.46c14.719-18.09 51.332-59.492 99.109-88.082-21.289 23.273-34.414 54.137-34.414 88.082 0 33.973 13.117 64.828 34.426 88.105-47.77-28.59-84.398-69.988-99.121-88.105zm291.57 88.289c21.391-23.289 34.578-54.234 34.578-88.281 0-33.945-13.117-64.801-34.41-88.082 47.785 28.613 84.402 70.016 99.113 88.105-14.703 18.129-51.359 59.652-99.281 88.258z"/>
  <path d="m376.01 348.64c-4.2656 0-8.4102 0.4375-12.414 1.293 8.7812 5.75 14.605 15.641 14.605 26.91 0 17.797-14.414 32.199-32.199 32.199-12.113 0-22.531-6.7461-28.027-16.629-1.5156 5.2891-2.3789 10.859-2.3789 16.629 0 33.359 27.047 60.398 60.406 60.398 33.344 0 60.398-27.035 60.398-60.398 0.003906-33.355-27.043-60.402-60.391-60.402z"/>
 </g>
</svg>
