<svg width="24" height="24" viewBox="0 0 24 24" fill="none" xmlns="http://www.w3.org/2000/svg">
<path d="M7.54576 8.70941C9.04771 12.8356 10.6026 14.4819 14.5583 16.2354L12.844 18.6599C8.30167 16.4699 6.03921 12.7783 4.97366 9.89744L7.54576 8.70941Z" fill="#3B4449"/>
<path d="M8.8058 3.01301C9.60894 3.00984 10.2196 3.68281 10.1648 4.44485C10.0787 5.64405 10.1704 6.50925 10.4174 7.58169C10.553 8.17079 10.2461 8.76911 9.75832 9.1545C9.1009 9.67393 8.59864 10.3358 8.19945 10.9056C7.64616 11.6953 5.74212 11.6386 5.32105 10.7783C4.45569 9.0102 3.86927 5.75283 5.13301 3.55206C5.33151 3.20638 5.73119 3.02515 6.14534 3.02352L8.8058 3.01301Z" fill="#3B4449"/>
<path d="M20.9969 16.0967C21.0968 15.3388 20.4677 14.6813 19.6657 14.6414C18.4036 14.5785 17.5115 14.3879 16.4217 14.0257C15.8231 13.8268 15.1616 14.0446 14.7007 14.4588C14.0794 15.017 13.3281 15.4116 12.6854 15.72C11.7945 16.1474 11.6248 17.9519 12.4721 18.453C14.2136 19.4826 17.5433 20.428 19.9925 19.4995C20.3772 19.3537 20.6144 18.9981 20.666 18.6073L20.9969 16.0967Z" fill="#3B4449"/>
</svg>
