<?xml version="1.0" encoding="UTF-8" standalone="no"?>
<!DOCTYPE svg PUBLIC "-//W3C//DTD SVG 1.1//EN" "http://www.w3.org/Graphics/SVG/1.1/DTD/svg11.dtd">
<svg width="100%" height="100%" viewBox="0 0 105 40" version="1.1" xmlns="http://www.w3.org/2000/svg" xmlns:xlink="http://www.w3.org/1999/xlink" xml:space="preserve" xmlns:serif="http://www.serif.com/" style="fill-rule:evenodd;clip-rule:evenodd;stroke-linejoin:round;stroke-miterlimit:2;">
    <g>
        <path d="M58.78,12.596C57.364,13.125 56.676,14.358 56.769,15.529C56.871,16.813 57.778,17.853 59.047,18.165C59.532,18.287 60.038,18.295 60.527,18.19C61.019,18.088 61.478,17.869 61.865,17.551C62.24,17.243 62.536,16.849 62.728,16.403C64.183,19.127 63.919,23.449 60.35,26.183C56.938,28.797 51.965,28.504 48.833,25.5C45.786,22.577 45.591,17.847 48.405,14.66C51.284,11.399 55.832,11.124 58.78,12.596Z" style="fill:white;fill-rule:nonzero;"/>
        <path d="M73.854,27.841C73.574,29.136 72.885,30.234 72.089,31.274C68.923,35.413 64.702,38.159 59.413,39.454C57.275,39.982 55.06,40.128 52.871,39.887C50.734,39.652 48.714,39.041 46.783,38.174C42.765,36.371 39.56,33.707 37.135,30.227C37.017,30.053 36.909,29.872 36.812,29.686C36.499,29.099 36.193,28.51 35.9,27.95C35.916,27.959 35.931,27.968 35.946,27.979C38.639,29.741 41.567,31.078 44.668,32.087C46.718,32.755 48.825,33.234 50.963,33.518C53.291,33.83 55.646,33.888 57.987,33.69C63.077,33.255 67.707,31.624 71.976,29.047C72.294,28.854 72.606,28.66 72.917,28.46C73.228,28.26 73.532,28.054 73.854,27.841Z" style="fill:white;fill-rule:nonzero;"/>
        <path d="M73.854,12.159C73.574,10.864 72.885,9.766 72.089,8.726C68.923,4.587 64.702,1.841 59.413,0.546C57.275,0.019 55.06,-0.126 52.871,0.116C50.734,0.351 48.714,0.962 46.783,1.829C42.765,3.633 39.56,6.296 37.135,9.776C37.017,9.95 36.909,10.131 36.812,10.318C36.499,10.904 36.193,11.494 35.9,12.053C35.916,12.044 35.931,12.035 35.946,12.024C38.639,10.263 41.567,8.926 44.668,7.917C46.718,7.248 48.825,6.769 50.963,6.485C53.29,6.173 55.645,6.116 57.985,6.314C63.076,6.749 67.706,8.38 71.975,10.956C72.292,11.15 72.605,11.343 72.916,11.544C73.226,11.744 73.532,11.946 73.854,12.159Z" style="fill:white;fill-rule:nonzero;"/>
        <path d="M74.266,19.091C74.155,18.251 74.201,17.407 73.878,16.604C73.651,16.038 73.318,15.519 73.015,14.99C72.885,15.298 72.784,15.55 72.739,15.683C71.786,18.481 70.665,21.041 68.708,23.301C67.15,25.1 65.297,26.625 63.34,27.982C61.042,29.576 58.596,30.946 56.035,32.072C61.84,31.233 67.561,29.526 72.402,26.129C73.595,25.289 74.211,24.415 74.495,22.986C74.689,22.006 74.725,20.823 74.689,19.573C74.578,19.545 74.478,19.483 74.403,19.397C74.327,19.311 74.28,19.204 74.266,19.091Z" style="fill:white;fill-rule:nonzero;"/>
        <path d="M73.023,24.971C73.617,24.39 74.175,23.744 74.379,22.937C74.405,22.822 74.471,22.72 74.565,22.649C74.714,20.603 74.805,18.523 74.496,16.959C74.213,15.531 73.595,14.655 72.403,13.817C67.562,10.42 61.84,8.709 56.036,7.873C58.597,8.999 61.043,10.369 63.342,11.963C65.299,13.318 67.153,14.844 68.71,16.644C70.667,18.903 71.788,21.464 72.74,24.261C72.786,24.394 72.89,24.654 73.023,24.971Z" style="fill:white;fill-rule:nonzero;"/>
        <path d="M35.582,19.091C35.692,18.251 35.646,17.407 35.969,16.604C36.197,16.038 36.53,15.519 36.833,14.99C36.962,15.298 37.063,15.55 37.108,15.683C38.062,18.481 39.182,21.041 41.139,23.301C42.697,25.1 44.551,26.625 46.507,27.982C48.805,29.576 51.251,30.946 53.812,32.072C48.007,31.233 42.286,29.526 37.446,26.129C36.253,25.289 35.637,24.415 35.352,22.986C35.158,22.006 35.122,20.823 35.158,19.573C35.269,19.545 35.369,19.483 35.445,19.397C35.52,19.311 35.568,19.204 35.582,19.091Z" style="fill:white;fill-rule:nonzero;"/>
        <path d="M36.825,24.971C36.231,24.39 35.672,23.744 35.469,22.937C35.443,22.822 35.377,22.72 35.283,22.649C35.134,20.603 35.043,18.523 35.352,16.959C35.635,15.531 36.253,14.655 37.446,13.817C42.286,10.42 48.007,8.709 53.812,7.873C51.251,8.999 48.804,10.369 46.506,11.963C44.55,13.318 42.694,14.844 41.138,16.644C39.18,18.903 38.061,21.464 37.107,24.261C37.061,24.394 36.955,24.654 36.825,24.971Z" style="fill:white;fill-rule:nonzero;"/>
        <path d="M39.414,17.236L39.431,17.212C39.4,17.095 39.325,17.359 39.414,17.236Z" style="fill:white;fill-rule:nonzero;"/>
        <path d="M0,20.074C0,9.21 9.076,0.094 19.923,0.094C24.928,0.166 29.549,2.295 33.333,5.98L29.813,10.742C27.107,8.038 23.587,6.243 19.804,6.243C12.811,6.243 6.13,12.369 6.13,20.098C6.13,27.875 12.907,33.881 19.827,33.881C23.778,33.881 27.178,31.919 29.836,29.287L33.337,34.168C30.008,37.446 25.769,39.959 20.023,39.959C9.076,39.959 0,30.961 0,20.074Z" style="fill:white;fill-rule:nonzero;"/>
        <path d="M77.53,32.565L82.32,29.143C84.044,32.158 87.253,33.881 90.964,33.881C95.298,33.881 98.579,31.799 98.579,28.856C98.579,25.291 93.503,23.137 89,21.199C84.478,19.189 79.446,16.844 79.446,10.79C79.446,4.473 84.93,0.07 91.874,0.07C97.382,0.07 101.5,2.726 103.081,6.961L98.579,10.072C97.382,7.464 94.724,6.005 91.925,6.005C88.381,6.005 85.555,8.207 85.555,10.934C85.555,13.949 89.123,15.026 93.816,17.036C99.923,19.716 104.664,22.659 104.664,28.737C104.664,35.58 98.726,39.983 90.895,39.983C84.547,39.983 79.733,37.016 77.53,32.565Z" style="fill:white;fill-rule:nonzero;"/>
    </g>
</svg>
