<svg width="105" height="40" viewBox="0 0 105 40" fill="none" xmlns="http://www.w3.org/2000/svg">
<g clip-path="url(#clip0_28_247)">
<path d="M58.7798 12.5958C57.3643 13.1246 56.6762 14.3576 56.7693 15.5293C56.8713 16.8127 57.7778 17.8534 59.0466 18.1652C59.5318 18.2865 60.0384 18.2951 60.5274 18.1904C61.0185 18.0884 61.4776 17.8691 61.8654 17.5513C62.2404 17.2425 62.5363 16.8488 62.7285 16.4028C64.1828 19.1271 63.9192 23.4486 60.3497 26.1833C56.9379 28.7973 51.9645 28.5035 48.8331 25.4996C45.7863 22.5765 45.5911 17.847 48.4047 14.6597C51.2836 11.3989 55.8318 11.1239 58.7798 12.5958Z" fill="#10A19F"/>
<path d="M73.8537 27.8413C73.574 29.1363 72.8846 30.2338 72.0887 31.2738C68.923 35.4126 64.7016 38.1589 59.413 39.454C57.2748 39.9817 55.0602 40.1283 52.871 39.8872C50.7345 39.6522 48.7136 39.0414 46.7825 38.1744C42.7647 36.3707 39.5596 33.707 37.1349 30.2274C37.0165 30.0534 36.9087 29.8725 36.8119 29.6857C36.4992 29.0989 36.193 28.5095 35.8997 27.9504C35.9157 27.9589 35.9313 27.9684 35.9462 27.9788C38.639 29.7406 41.5669 31.0776 44.668 32.0866C46.718 32.7549 48.825 33.234 50.9625 33.5179C53.2907 33.83 55.6459 33.8876 57.9865 33.6896C63.0768 33.2545 67.7071 31.6238 71.9763 29.0473C72.2935 28.8536 72.6062 28.6599 72.9169 28.4598C73.2277 28.2596 73.532 28.0537 73.8537 27.8413Z" fill="#10A19F"/>
<path d="M73.8537 12.1587C73.574 10.8637 72.8846 9.76621 72.0887 8.72618C68.923 4.58738 64.7016 1.84109 59.413 0.546064C57.2746 0.0194571 55.06 -0.126089 52.871 0.116111C50.7345 0.351102 48.7136 0.96182 46.7825 1.82883C42.7647 3.63258 39.5596 6.29623 37.1349 9.77589C37.0165 9.94984 36.9087 10.1307 36.8119 10.3175C36.4992 10.9044 36.193 11.4938 35.8997 12.0528C35.9157 12.0444 35.9313 12.0349 35.9462 12.0244C38.639 10.2627 41.5669 8.92567 44.668 7.91663C46.718 7.24835 48.825 6.76926 50.9625 6.48538C53.2902 6.17336 55.645 6.11578 57.9852 6.31366C63.0755 6.74878 67.7058 8.37951 71.975 10.956C72.2922 11.1497 72.6049 11.3434 72.9156 11.5435C73.2264 11.7436 73.532 11.9463 73.8537 12.1587Z" fill="#10A19F"/>
<path d="M74.2659 19.0905C74.1548 18.2512 74.2013 17.4068 73.8783 16.6037C73.6509 16.0375 73.3175 15.5191 73.0145 14.9897C72.8853 15.2977 72.7839 15.5501 72.7386 15.6831C71.7857 18.481 70.6654 21.0414 68.7079 23.3009C67.1502 25.1001 65.2967 26.625 63.3398 27.982C61.0417 29.576 58.5956 30.9458 56.0354 32.0724C61.8396 31.2331 67.5611 29.5262 72.402 26.1285C73.5947 25.2893 74.211 24.4145 74.4953 22.9859C74.6891 22.0059 74.7253 20.8232 74.6891 19.5733C74.5781 19.5448 74.4783 19.4834 74.4028 19.3973C74.3273 19.3111 74.2796 19.2042 74.2659 19.0905Z" fill="#3B4448"/>
<path d="M73.0227 24.9709C73.6165 24.3899 74.1753 23.7443 74.3795 22.9367C74.405 22.8217 74.4707 22.7196 74.5649 22.6488C74.7141 20.603 74.8052 18.5235 74.4957 16.9593C74.2128 15.5313 73.5951 14.6546 72.4025 13.8173C67.5616 10.4196 61.8401 8.70947 56.0359 7.8728C58.5965 8.99915 61.043 10.3687 63.3415 11.9625C65.2985 13.3183 67.1533 14.8444 68.7096 16.6436C70.6672 18.9031 71.7875 21.4635 72.7404 24.2614C72.7863 24.3944 72.8896 24.654 73.0227 24.9709Z" fill="#3B4448"/>
<path d="M35.5816 19.0905C35.6921 18.2512 35.6463 17.4068 35.9693 16.6037C36.1967 16.0375 36.5301 15.5191 36.8331 14.9897C36.9623 15.2977 37.0631 15.5501 37.1083 15.6831C38.0619 18.481 39.1815 21.0414 41.1391 23.3009C42.6973 25.1001 44.5509 26.625 46.5072 27.982C48.8053 29.5759 51.2513 30.9456 53.8115 32.0724C48.0073 31.2331 42.2858 29.5262 37.4455 26.1285C36.2529 25.2893 35.6366 24.4145 35.3523 22.9859C35.1585 22.0059 35.1217 20.8232 35.1585 19.5733C35.2694 19.5447 35.3692 19.4833 35.4446 19.3972C35.5201 19.311 35.5679 19.2041 35.5816 19.0905Z" fill="#3B4448"/>
<path d="M36.8253 24.9709C36.2315 24.3899 35.6721 23.7443 35.4685 22.9367C35.4428 22.8217 35.3768 22.7196 35.2825 22.6488C35.1339 20.603 35.0428 18.5235 35.3523 16.9593C35.6346 15.5313 36.2529 14.6546 37.4455 13.8173C42.2858 10.4196 48.0073 8.70947 53.8115 7.8728C51.2509 8.99929 48.8045 10.3688 46.5058 11.9625C44.5496 13.3183 42.6941 14.8444 41.1377 16.6436C39.1802 18.9031 38.0605 21.4635 37.107 24.2614C37.0611 24.3944 36.9545 24.654 36.8253 24.9709Z" fill="#3B4448"/>
<path d="M39.4136 17.2362L39.431 17.2123C39.4 17.0948 39.3251 17.3589 39.4136 17.2362Z" fill="#3B4448"/>
<path d="M0 20.0741C0 9.21035 9.07585 0.0935059 19.9232 0.0935059C24.9282 0.165811 29.5495 2.29493 33.3334 5.97988L29.8131 10.7417C27.1074 8.03799 23.587 6.24328 19.8037 6.24328C12.8114 6.24328 6.13046 12.3692 6.13046 20.098C6.13046 27.8747 12.907 33.8805 19.8269 33.8805C23.7782 33.8805 27.1784 31.9185 29.8363 29.2865L33.3367 34.1677C30.0082 37.446 25.7694 39.9586 20.0227 39.9586C9.07585 39.9586 0 30.9612 0 20.0741Z" fill="#3B4448"/>
<path d="M77.5303 32.565L82.3195 29.1434C84.0438 32.1583 87.2528 33.8807 90.9644 33.8807C95.2982 33.8807 98.5789 31.7993 98.5789 28.8561C98.5789 25.2906 93.5028 23.137 89.0004 21.1989C84.478 19.1886 79.4458 16.8439 79.4458 10.7903C79.4458 4.47266 84.9296 0.0698242 91.8741 0.0698242C97.3817 0.0698242 101.5 2.72638 103.081 6.96137L98.5789 10.0724C97.3817 7.46427 94.7239 6.00526 91.9245 6.00526C88.3808 6.00526 85.555 8.20669 85.555 10.9343C85.555 13.9491 89.1232 15.0259 93.8161 17.0363C99.9227 19.716 104.664 22.6592 104.664 28.7367C104.664 35.5798 98.7255 39.9833 90.8947 39.9833C84.5465 39.9827 79.7333 37.0156 77.5303 32.565Z" fill="#3B4448"/>
</g>
<defs>
<clipPath id="clip0_28_247">
<rect width="104.662" height="40" fill="white"/>
</clipPath>
</defs>
</svg>
