<svg width="158" height="60" viewBox="0 0 158 60" fill="none" xmlns="http://www.w3.org/2000/svg">
<g clip-path="url(#clip0_28_456)">
<path d="M88.4197 18.8937C86.2964 19.6868 85.2644 21.5364 85.4039 23.294C85.557 25.2191 86.9166 26.7801 88.8199 27.2478C89.5477 27.4297 90.3075 27.4427 91.0411 27.2856C91.7777 27.1326 92.4663 26.8037 93.0481 26.3269C93.6106 25.8637 94.0544 25.2731 94.3428 24.6042C96.5242 28.6907 96.1288 35.173 90.7746 39.275C85.6568 43.1959 78.1968 42.7553 73.4996 38.2495C68.9294 33.8647 68.6367 26.7704 72.8571 21.9896C77.1754 17.0984 83.9978 16.6859 88.4197 18.8937Z" fill="#10A19F"/>
<path d="M111.03 41.7617C110.611 43.7043 109.577 45.3505 108.383 46.9105C103.634 53.1187 97.3023 57.2382 89.3694 59.1807C86.1621 59.9722 82.8402 60.1922 79.5564 59.8305C76.3516 59.478 73.3203 58.5619 70.4237 57.2614C64.3969 54.5558 59.5893 50.5603 55.9523 45.3408C55.7747 45.0799 55.6129 44.8086 55.4677 44.5283C54.9987 43.6481 54.5393 42.764 54.0994 41.9254C54.1235 41.9381 54.1468 41.9523 54.1691 41.968C58.2083 44.6107 62.6002 46.6161 67.2518 48.1297C70.3269 49.1321 73.4874 49.8508 76.6937 50.2766C80.1859 50.7447 83.7187 50.8311 87.2296 50.5342C94.8651 49.8815 101.811 47.4354 108.214 43.5706C108.69 43.2801 109.159 42.9896 109.625 42.6894C110.091 42.3892 110.548 42.0803 111.03 41.7617Z" fill="#10A19F"/>
<path d="M111.03 18.2383C110.611 16.2958 109.577 14.6496 108.383 13.0895C103.634 6.88132 97.3023 2.76188 89.3694 0.819341C86.1618 0.0294298 82.8399 -0.18889 79.5564 0.174411C76.3516 0.526897 73.3203 1.44297 70.4237 2.74349C64.3969 5.44911 59.5893 9.44459 55.9523 14.6641C55.7747 14.925 55.6129 15.1963 55.4677 15.4765C54.9987 16.3568 54.5393 17.2409 54.0994 18.0795C54.1235 18.0668 54.1468 18.0525 54.1691 18.0369C58.2083 15.3942 62.6002 13.3887 67.2518 11.8752C70.3269 10.8728 73.4874 10.1541 76.6937 9.72831C80.1852 9.26029 83.7174 9.17392 87.2277 9.47073C94.8631 10.1234 101.809 12.5695 108.212 16.4343C108.688 16.7248 109.157 17.0153 109.623 17.3155C110.089 17.6157 110.548 17.9197 111.03 18.2383Z" fill="#10A19F"/>
<path d="M111.649 28.6357C111.482 27.3768 111.552 26.1102 111.067 24.9055C110.726 24.0563 110.226 23.2787 109.772 22.4846C109.578 22.9465 109.426 23.3252 109.358 23.5246C107.928 27.7215 106.248 31.5621 103.312 34.9514C100.975 37.6502 98.1949 39.9375 95.2595 41.973C91.8124 44.364 88.1433 46.4187 84.303 48.1086C93.0093 46.8497 101.592 44.2893 108.853 39.1928C110.642 37.9339 111.566 36.6218 111.993 34.4788C112.283 33.0088 112.338 31.2348 112.283 29.36C112.117 29.3172 111.967 29.2251 111.854 29.0959C111.741 28.9666 111.669 28.8062 111.649 28.6357Z" fill="white"/>
<path d="M109.784 37.4565C110.675 36.585 111.513 35.6166 111.819 34.4052C111.858 34.2327 111.956 34.0796 112.097 33.9733C112.321 30.9046 112.458 27.7854 111.994 25.4391C111.569 23.2971 110.643 21.982 108.854 20.726C101.593 15.6295 93.0103 13.0643 84.304 11.8093C88.1449 13.4988 91.8146 15.5531 95.2624 17.9439C98.1978 19.9775 100.98 22.2667 103.315 24.9656C106.251 28.3548 107.931 32.1954 109.361 36.3923C109.43 36.5918 109.585 36.981 109.784 37.4565Z" fill="white"/>
<path d="M53.6226 28.6357C53.7883 27.3768 53.7195 26.1102 54.204 24.9055C54.5452 24.0563 55.0452 23.2787 55.4997 22.4846C55.6935 22.9465 55.8447 23.3252 55.9125 23.5246C57.3429 27.7215 59.0224 31.5621 61.9587 34.9514C64.2961 37.6502 67.0765 39.9375 70.0109 41.973C73.4581 44.3638 77.1271 46.4184 80.9674 48.1086C72.2611 46.8497 63.6788 44.2893 56.4184 39.1928C54.6295 37.9339 53.705 36.6218 53.2786 34.4788C52.9878 33.0088 52.9326 31.2348 52.9878 29.36C53.1543 29.3171 53.3038 29.225 53.4171 29.0957C53.5303 28.9665 53.6019 28.8062 53.6226 28.6357Z" fill="white"/>
<path d="M55.4882 37.4565C54.5976 36.585 53.7583 35.6166 53.4531 34.4052C53.4145 34.2326 53.3155 34.0795 53.174 33.9733C52.9511 30.9046 52.8144 27.7854 53.2786 25.4391C53.7021 23.2971 54.6295 21.982 56.4185 20.726C63.6789 15.6295 72.2612 13.0643 80.9675 11.8093C77.1266 13.4991 73.4569 15.5533 70.009 17.9439C67.0746 19.9775 64.2914 22.2667 61.9568 24.9656C59.0205 28.3548 57.3411 32.1954 55.9107 36.3923C55.8419 36.5918 55.682 36.981 55.4882 37.4565Z" fill="white"/>
<path d="M59.3703 25.8544L59.3964 25.8186C59.3499 25.6424 59.2375 26.0384 59.3703 25.8544Z" fill="white"/>
<path d="M0.25 30.1113C0.25 13.8157 13.8638 0.140381 30.1348 0.140381C37.6423 0.248838 44.5742 3.44251 50.2502 8.96995L44.9696 16.1126C40.9111 12.0571 35.6305 9.36504 29.9555 9.36504C19.467 9.36504 9.44569 18.5539 9.44569 30.1472C9.44569 41.8121 19.6105 50.8208 29.9904 50.8208C35.9173 50.8208 41.0177 47.8779 45.0045 43.9299L50.255 51.2517C45.2623 56.1691 38.9041 59.938 30.284 59.938C13.8638 59.938 0.25 46.4419 0.25 30.1113Z" fill="white"/>
<path d="M116.546 48.8472L123.73 43.7149C126.316 48.2372 131.129 50.8208 136.697 50.8208C143.198 50.8208 148.119 47.6987 148.119 43.284C148.119 37.9357 140.504 34.7052 133.751 31.7982C126.967 28.7827 119.419 25.2656 119.419 16.1852C119.419 6.70875 127.645 0.104492 138.061 0.104492C146.323 0.104492 152.501 4.08932 154.872 10.4418L148.119 15.1084C146.323 11.1962 142.336 9.00765 138.137 9.00765C132.822 9.00765 128.583 12.3098 128.583 16.4011C128.583 20.9234 133.935 22.5386 140.974 25.5541C150.134 29.5738 157.246 33.9886 157.246 43.1048C157.246 53.3695 148.339 59.9747 136.592 59.9747C127.07 59.9738 119.85 55.5231 116.546 48.8472Z" fill="white"/>
</g>
<defs>
<clipPath id="clip0_28_456">
<rect width="156.992" height="60" fill="white" transform="translate(0.25)"/>
</clipPath>
</defs>
</svg>
