<svg width="24" height="24" viewBox="0 0 24 24" fill="none" xmlns="http://www.w3.org/2000/svg">
<g clip-path="url(#clip0_129_298)">
<path fill-rule="evenodd" clip-rule="evenodd" d="M19.9589 4.00809C17.8539 1.90066 15.0545 0.739548 12.0721 0.738281C5.92664 0.738281 0.925102 5.73968 0.922638 11.8868C0.921794 13.8519 1.43515 15.7701 2.41088 17.4609L0.829102 23.2383L6.73961 21.6879C8.3682 22.5762 10.2017 23.0444 12.0676 23.0449H12.0723C18.217 23.0449 23.2191 18.0431 23.2215 11.8957C23.2227 8.91651 22.064 6.11541 19.9589 4.00809ZM12.0721 21.162H12.0683C10.4055 21.1613 8.77469 20.7145 7.35168 19.8703L7.01346 19.6694L3.50605 20.5895L4.44223 17.1699L4.22183 16.8193C3.29417 15.3438 2.80432 13.6385 2.80512 11.8875C2.80706 6.77815 6.9643 2.62137 12.0758 2.62137C14.551 2.62218 16.8778 3.58731 18.6274 5.33896C20.377 7.09061 21.3399 9.41886 21.3391 11.895C21.3369 17.0048 17.1799 21.162 12.0721 21.162ZM17.1552 14.2215C16.8767 14.082 15.507 13.4083 15.2516 13.3152C14.9964 13.2222 14.8104 13.1759 14.6249 13.4547C14.4391 13.7335 13.9053 14.3611 13.7427 14.5469C13.5801 14.7328 13.4178 14.7562 13.1392 14.6167C12.8605 14.4773 11.9629 14.183 10.8988 13.2339C10.0707 12.4952 9.51161 11.5829 9.349 11.3041C9.1867 11.0251 9.34762 10.8888 9.47125 10.7356C9.7728 10.3611 10.0748 9.96846 10.1676 9.78266C10.2606 9.59671 10.2141 9.43399 10.1443 9.2946C10.0748 9.15521 9.51766 7.78397 9.28555 7.22599C9.05924 6.683 8.82976 6.75633 8.65866 6.74782C8.49633 6.73972 8.31052 6.73807 8.12471 6.73807C7.93905 6.73807 7.63722 6.80771 7.38177 7.08674C7.12646 7.36566 6.40688 8.03952 6.40688 9.41076C6.40688 10.782 7.4051 12.1067 7.54435 12.2926C7.68364 12.4786 9.50887 15.2925 12.3034 16.499C12.968 16.7863 13.4869 16.9576 13.8916 17.0859C14.559 17.298 15.1661 17.2681 15.6463 17.1964C16.1815 17.1163 17.2943 16.5224 17.5267 15.8717C17.7588 15.2209 17.7588 14.6632 17.689 14.5469C17.6195 14.4307 17.4337 14.3611 17.1552 14.2215Z" fill="#FAFAFA"/>
</g>
<defs>
<clipPath id="clip0_129_298">
<rect width="24" height="24" fill="white"/>
</clipPath>
</defs>
</svg>
